# xmcd
#
# Track frame offsets:
#	150
#	17655
#	38382
#	52421
#	74032
#	90803
#	109884
#	127520
#	145648
#	160433
#	176664
#	192545
#	208122
#
# Disc length: 3011 seconds
# Revision: 0
# Processed by: cddbd v1.5.2PL0 Copyright (c) Steve Scherf et al.
# Submitted via: dBpowerAMP V12.0
#
DISCID=b30bc10d
DTITLE=Clouseau - Vonken and Vuur
DYEAR=2007
DGENRE=Nederlandstalig
TTITLE0=Oogcontact
TTITLE1=De Tegenpartij
TTITLE2=Vonken and Vuur
TTITLE3=Casanova (Wen Er Maar Aan)
TTITLE4=Onvolmaakt
TTITLE5=Erop Los
TTITLE6=Hoe Lang
TTITLE7=Houvast
TTITLE8=Voltooid Verleden Tijd
TTITLE9=De Ware
TTITLE10=Dansvloertherapie
TTITLE11=Alles Draait
TTITLE12=Vaarwel
EXTD=
EXTT0=
EXTT1=
EXTT2=
EXTT3=
EXTT4=
EXTT5=
EXTT6=
EXTT7=
EXTT8=
EXTT9=
EXTT10=
EXTT11=
EXTT12=
PLAYORDER=
